<svg class="CustomersCaseStudyCard__icon" role="presentation" width="20" viewBox="0 0 20 18" fill="none" xmlns="http://www.w3.org/2000/svg"><path d="M16.9.27c1.62 0 2.92 1.3 2.92 2.91v13.1c0 .8-.65 1.45-1.46 1.45H3.42c-2.15 0-3.24-1.05-3.24-2.83V6.4c0-2.45 2.18-3.2 4.12-3.2C4.3 1.57 5.6.26 7.21.26h9.7zM7.83 3.55a1.1 1.1 0 1 0 0 2.18h5.45a1.1 1.1 0 1 0 0-2.18H7.82zm0 4.36a1.1 1.1 0 1 0 0 2.18h8.73a1.1 1.1 0 0 0 0-2.18H7.82zm0 4.36a1.1 1.1 0 1 0 0 2.18h8.73a1.1 1.1 0 1 0 0-2.18H7.82zM4 5.73c-.9 0-1.64.73-1.64 1.63v7.1c0 .6.5 1.09 1.1 1.09h1.09V5.73H4z" fill="#fff"></path></svg>